#Comment line ignore any data following # character 
#Hierarchical Translation and Rotation (.htr) file 
[Header]	
#Header keywords are followed by a single value 
FileType HTR		#Single word string
DataType HTRS		#Translation followed by rotation and scale data
FileVersion 1		#integer
NumSegments 84		#integer
NumFrames 2		#integer
DataFrameRate 30		#integer, data frame rate in this file
EulerRotationOrder ZYX
CalibrationUnits mm
RotationUnits Degrees
GlobalAxisofGravity Y
BoneLengthAxis Y
ScaleFactor 1.00
[SegmentNames&Hierarchy]
#CHILD	PARENT
MASTER GLOBAL
root MASTER
chest root
L_mid_tent01 root
R_mid_tent01 root
spine01 root
Bip01_Neck chest
L_humerus chest
R_humerus chest
weapon_bone chest
Bip01_Head Bip01_Neck
eye_left_bone Bip01_Head
eye_right_bone Bip01_Head
L_forearm L_humerus
L_front_hand L_forearm
L_weapon_bone L_forearm
L_front_hand01_01 L_front_hand
L_front_hand02_01 L_front_hand
L_front_hand03_01 L_front_hand
L_front_hand01_02 L_front_hand01_01
L_front_hand02_02 L_front_hand02_01
L_front_hand03_02 L_front_hand03_01
R_forearm R_humerus
R_front_hand R_forearm
R_weapon_bone R_forearm
R_front_hand01_01 R_front_hand
R_front_hand02_01 R_front_hand
R_front_hand03_01 R_front_hand
R_front_hand01_02 R_front_hand01_01
R_front_hand02_02 R_front_hand02_01
R_front_hand03_02 R_front_hand03_01
null_rope01_connect L_mid_tent01
Rope1_Seg01 null_rope01_connect
Rope1_Seg02 Rope1_Seg01
Rope1_Seg03 Rope1_Seg02
Rope1_Seg04 Rope1_Seg03
Rope1_Seg05 Rope1_Seg04
Rope1_Seg06 Rope1_Seg05
Rope1_Seg07 Rope1_Seg06
Rope1_Seg09 Rope1_Seg07
L_mid_hand01 Rope1_Seg09
L_mid_hand02 Rope1_Seg09
L_mid_hand03 Rope1_Seg09
null_rope02_connect R_mid_tent01
Rope2_Seg01 null_rope02_connect
Rope2_Seg02 Rope2_Seg01
Rope2_Seg03 Rope2_Seg02
Rope2_Seg04 Rope2_Seg03
Rope2_Seg05 Rope2_Seg04
Rope2_Seg06 Rope2_Seg05
Rope2_Seg07 Rope2_Seg06
Rope2_Seg09 Rope2_Seg07
R_mid_hand01 Rope2_Seg09
R_mid_hand02 Rope2_Seg09
R_mid_hand03 Rope2_Seg09
spine02 spine01
spine03 spine02
pelvis spine03
null_rope03_connect pelvis
null_rope04_connect pelvis
Rope3_Seg01 null_rope03_connect
Rope3_Seg02 Rope3_Seg01
Rope3_Seg03 Rope3_Seg02
Rope3_Seg04 Rope3_Seg03
Rope3_Seg05 Rope3_Seg04
Rope3_Seg06 Rope3_Seg05
Rope3_Seg07 Rope3_Seg06
Rope3_Seg08 Rope3_Seg07
Rope3_Seg09 Rope3_Seg08
R_rear_hand01 Rope3_Seg09
R_rear_hand02 Rope3_Seg09
R_rear_hand03 Rope3_Seg09
Rope4_Seg01 null_rope04_connect
Rope4_Seg02 Rope4_Seg01
Rope4_Seg03 Rope4_Seg02
Rope4_Seg04 Rope4_Seg03
Rope4_Seg05 Rope4_Seg04
Rope4_Seg06 Rope4_Seg05
Rope4_Seg07 Rope4_Seg06
Rope4_Seg08 Rope4_Seg07
Rope4_Seg09 Rope4_Seg08
L_rear_hand01 Rope4_Seg09
L_rear_hand02 Rope4_Seg09
L_rear_hand03 Rope4_Seg09
[BasePosition]
#SegmentName Tx, Ty, Tz, Rx, Ry, Rz, BoneLength
MASTER 0.000000 0.000000 0.000000 -90.000000 0.000000 0.000000 10.000000 
root 0.000000 0.000000 0.000000 0.000000 0.000000 0.000000 10.000000 
chest 0.000000 0.000000 0.000000 0.000000 0.000000 0.000000 10.000000 
L_mid_tent01 0.000000 0.000000 0.000000 0.000000 0.000000 0.000000 10.000000 
R_mid_tent01 0.000000 0.000000 0.000000 0.000000 0.000000 0.000000 10.000000 
spine01 0.000000 0.000000 0.000000 0.000000 0.000000 0.000000 10.000000 
Bip01_Neck 0.000000 0.000000 0.000000 0.000000 0.000000 0.000000 10.000000 
L_humerus 0.000000 0.000000 0.000000 0.000000 0.000000 0.000000 10.000000 
R_humerus 0.000000 0.000000 0.000000 0.000000 0.000000 0.000000 10.000000 
weapon_bone 0.000000 0.000000 0.000000 0.000000 0.000000 0.000000 10.000000 
Bip01_Head 0.000000 0.000000 0.000000 0.000000 0.000000 0.000000 10.000000 
eye_left_bone 0.000000 0.000000 0.000000 0.000000 0.000000 0.000000 10.000000 
eye_right_bone 0.000000 0.000000 0.000000 0.000000 0.000000 0.000000 10.000000 
L_forearm 0.000000 0.000000 0.000000 0.000000 0.000000 0.000000 10.000000 
L_front_hand 0.000000 0.000000 0.000000 0.000000 0.000000 0.000000 10.000000 
L_weapon_bone 0.000000 0.000000 0.000000 0.000000 0.000000 0.000000 10.000000 
L_front_hand01_01 0.000000 0.000000 0.000000 0.000000 0.000000 0.000000 10.000000 
L_front_hand02_01 0.000000 0.000000 0.000000 0.000000 0.000000 0.000000 10.000000 
L_front_hand03_01 0.000000 0.000000 0.000000 0.000000 0.000000 0.000000 10.000000 
L_front_hand01_02 0.000000 0.000000 0.000000 0.000000 0.000000 0.000000 10.000000 
L_front_hand02_02 0.000000 0.000000 0.000000 0.000000 0.000000 0.000000 10.000000 
L_front_hand03_02 0.000000 0.000000 0.000000 0.000000 0.000000 0.000000 10.000000 
R_forearm 0.000000 0.000000 0.000000 0.000000 0.000000 0.000000 10.000000 
R_front_hand 0.000000 0.000000 0.000000 0.000000 0.000000 0.000000 10.000000 
R_weapon_bone 0.000000 0.000000 0.000000 0.000000 0.000000 0.000000 10.000000 
R_front_hand01_01 0.000000 0.000000 0.000000 0.000000 0.000000 0.000000 10.000000 
R_front_hand02_01 0.000000 0.000000 0.000000 0.000000 0.000000 0.000000 10.000000 
R_front_hand03_01 0.000000 0.000000 0.000000 0.000000 0.000000 0.000000 10.000000 
R_front_hand01_02 0.000000 0.000000 0.000000 0.000000 0.000000 0.000000 10.000000 
R_front_hand02_02 0.000000 0.000000 0.000000 0.000000 0.000000 0.000000 10.000000 
R_front_hand03_02 0.000000 0.000000 0.000000 0.000000 0.000000 0.000000 10.000000 
null_rope01_connect 0.000000 0.000000 0.000000 0.000000 0.000000 0.000000 10.000000 
Rope1_Seg01 0.000000 0.000000 0.000000 0.000000 0.000000 0.000000 10.000000 
Rope1_Seg02 0.000000 0.000000 0.000000 0.000000 0.000000 0.000000 10.000000 
Rope1_Seg03 0.000000 0.000000 0.000000 0.000000 0.000000 0.000000 10.000000 
Rope1_Seg04 0.000000 0.000000 0.000000 0.000000 0.000000 0.000000 10.000000 
Rope1_Seg05 0.000000 0.000000 0.000000 0.000000 0.000000 0.000000 10.000000 
Rope1_Seg06 0.000000 0.000000 0.000000 0.000000 0.000000 0.000000 10.000000 
Rope1_Seg07 0.000000 0.000000 0.000000 0.000000 0.000000 0.000000 10.000000 
Rope1_Seg09 0.000000 0.000000 0.000000 0.000000 0.000000 0.000000 10.000000 
L_mid_hand01 0.000000 0.000000 0.000000 0.000000 0.000000 0.000000 10.000000 
L_mid_hand02 0.000000 0.000000 0.000000 0.000000 0.000000 0.000000 10.000000 
L_mid_hand03 0.000000 0.000000 0.000000 0.000000 0.000000 0.000000 10.000000 
null_rope02_connect 0.000000 0.000000 0.000000 0.000000 0.000000 0.000000 10.000000 
Rope2_Seg01 0.000000 0.000000 0.000000 0.000000 0.000000 0.000000 10.000000 
Rope2_Seg02 0.000000 0.000000 0.000000 0.000000 0.000000 0.000000 10.000000 
Rope2_Seg03 0.000000 0.000000 0.000000 0.000000 0.000000 0.000000 10.000000 
Rope2_Seg04 0.000000 0.000000 0.000000 0.000000 0.000000 0.000000 10.000000 
Rope2_Seg05 0.000000 0.000000 0.000000 0.000000 0.000000 0.000000 10.000000 
Rope2_Seg06 0.000000 0.000000 0.000000 0.000000 0.000000 0.000000 10.000000 
Rope2_Seg07 0.000000 0.000000 0.000000 0.000000 0.000000 0.000000 10.000000 
Rope2_Seg09 0.000000 0.000000 0.000000 0.000000 0.000000 0.000000 10.000000 
R_mid_hand01 0.000000 0.000000 0.000000 0.000000 0.000000 0.000000 10.000000 
R_mid_hand02 0.000000 0.000000 0.000000 0.000000 0.000000 0.000000 10.000000 
R_mid_hand03 0.000000 0.000000 0.000000 0.000000 0.000000 0.000000 10.000000 
spine02 0.000000 0.000000 0.000000 0.000000 0.000000 0.000000 10.000000 
spine03 0.000000 0.000000 0.000000 0.000000 0.000000 0.000000 10.000000 
pelvis 0.000000 0.000000 0.000000 0.000000 0.000000 0.000000 10.000000 
null_rope03_connect 0.000000 0.000000 0.000000 0.000000 0.000000 0.000000 10.000000 
null_rope04_connect 0.000000 0.000000 0.000000 0.000000 0.000000 0.000000 10.000000 
Rope3_Seg01 0.000000 0.000000 0.000000 0.000000 0.000000 0.000000 10.000000 
Rope3_Seg02 0.000000 0.000000 0.000000 0.000000 0.000000 0.000000 10.000000 
Rope3_Seg03 0.000000 0.000000 0.000000 0.000000 0.000000 0.000000 10.000000 
Rope3_Seg04 0.000000 0.000000 0.000000 0.000000 0.000000 0.000000 10.000000 
Rope3_Seg05 0.000000 0.000000 0.000000 0.000000 0.000000 0.000000 10.000000 
Rope3_Seg06 0.000000 0.000000 0.000000 0.000000 0.000000 0.000000 10.000000 
Rope3_Seg07 0.000000 0.000000 0.000000 0.000000 0.000000 0.000000 10.000000 
Rope3_Seg08 0.000000 0.000000 0.000000 0.000000 0.000000 0.000000 10.000000 
Rope3_Seg09 0.000000 0.000000 0.000000 0.000000 0.000000 0.000000 10.000000 
R_rear_hand01 0.000000 0.000000 0.000000 0.000000 0.000000 0.000000 10.000000 
R_rear_hand02 0.000000 0.000000 0.000000 0.000000 0.000000 0.000000 10.000000 
R_rear_hand03 0.000000 0.000000 0.000000 0.000000 0.000000 0.000000 10.000000 
Rope4_Seg01 0.000000 0.000000 0.000000 0.000000 0.000000 0.000000 10.000000 
Rope4_Seg02 0.000000 0.000000 0.000000 0.000000 0.000000 0.000000 10.000000 
Rope4_Seg03 0.000000 0.000000 0.000000 0.000000 0.000000 0.000000 10.000000 
Rope4_Seg04 0.000000 0.000000 0.000000 0.000000 0.000000 0.000000 10.000000 
Rope4_Seg05 0.000000 0.000000 0.000000 0.000000 0.000000 0.000000 10.000000 
Rope4_Seg06 0.000000 0.000000 0.000000 0.000000 0.000000 0.000000 10.000000 
Rope4_Seg07 0.000000 0.000000 0.000000 0.000000 0.000000 0.000000 10.000000 
Rope4_Seg08 0.000000 0.000000 0.000000 0.000000 0.000000 0.000000 10.000000 
Rope4_Seg09 0.000000 0.000000 0.000000 0.000000 0.000000 0.000000 10.000000 
L_rear_hand01 0.000000 0.000000 0.000000 0.000000 0.000000 0.000000 10.000000 
L_rear_hand02 0.000000 0.000000 0.000000 0.000000 0.000000 0.000000 10.000000 
L_rear_hand03 0.000000 0.000000 0.000000 0.000000 0.000000 0.000000 10.000000 
#Beginning of Data. Separated by tabs
#Fr	Tx	Ty	Tz	Rx	Ry	Rz	SF
[MASTER]
32 -0.000636 3984.319092 5008.158691 0.001660 0.001660 0.001660 6399.722656
33 -0.000647 4050.056885 5030.897461 0.001660 0.001660 0.001660 6458.551758
[root]
32 20.012928 -118.897446 462.015503 -104.333641 -19.876965 -90.701340 477.488708
33 -5.577824 -123.037727 500.908783 -102.549164 -18.241995 -90.687378 515.828430
[chest]
32 -84.512650 -34.090519 0.000000 6.008434 5.596972 175.178345 91.129311
33 -84.512650 -34.090519 0.000000 0.620570 5.511217 160.162415 91.129311
[L_mid_tent01]
32 27.299135 22.179365 -249.918701 -0.992167 30.333847 67.722420 252.381714
33 27.299137 22.179373 -249.918701 -0.881948 31.233734 67.777008 252.381714
[R_mid_tent01]
32 23.228794 24.509907 226.238495 169.405579 -24.533535 65.629395 228.744751
33 23.228794 24.509907 226.238495 167.643860 -24.899836 69.491852 228.744751
[spine01]
32 -0.361383 -0.195265 0.000000 0.001955 0.001300 22.762737 0.410763
33 -0.361383 -0.195265 0.000000 0.001954 0.001300 22.724339 0.410763
[Bip01_Neck]
32 165.484543 71.581718 0.000119 176.643677 -1.657967 43.431911 180.302734
33 165.484543 71.581718 0.000119 176.643677 -1.657967 43.431911 180.302734
[L_humerus]
32 -13.983130 -135.272980 -120.471481 155.261780 71.037346 -113.124710 181.680161
33 -13.983130 -135.272980 -120.471481 166.258484 55.081223 -100.925461 181.680161
[R_humerus]
32 -13.983309 -135.273102 125.287651 -176.330933 -35.593369 -87.682602 184.909012
33 -13.983309 -135.273102 125.287651 -176.718750 -24.755014 -86.914894 184.909012
[weapon_bone]
32 235.964890 -300.705902 0.000000 0.000000 -89.951546 -128.212341 382.234833
33 235.964890 -300.705902 0.000000 0.000000 -89.951546 -128.212341 382.234833
[Bip01_Head]
32 213.356934 185.957932 8.645773 4.438351 -0.183085 -43.897949 283.154175
33 213.335571 186.020203 7.849424 4.443147 0.096368 -43.897820 283.155792
[eye_left_bone]
32 -24.626970 125.451866 -64.772606 0.000000 -90.000000 -99.840431 143.318359
33 -24.626970 125.451866 -64.772606 0.000000 -90.000000 -99.840431 143.318359
[eye_right_bone]
32 -24.626970 125.451866 64.327362 0.000000 -89.965736 80.156380 143.117676
33 -24.626970 125.451866 64.327362 0.000000 -89.965736 80.156380 143.117676
[L_forearm]
32 322.776093 0.000000 -0.000119 0.000212 -0.002338 -100.352852 322.776093
33 322.776093 0.000000 -0.000119 0.000220 -0.002337 -100.733902 322.776093
[L_front_hand]
32 241.149185 -0.042021 -3.300071 -175.408401 -1.836026 -27.423843 241.171753
33 241.149185 -0.042021 -3.300071 -175.601700 -1.837209 -27.424038 241.171753
[L_weapon_bone]
32 156.183838 0.000000 0.000000 0.000014 0.000007 0.000001 156.183838
33 156.183838 0.000000 0.000000 0.000014 0.000007 0.000001 156.183838
[L_front_hand01_01]
32 86.095154 20.947098 -0.655860 0.222177 -0.559269 16.122311 88.609184
33 86.095154 20.947098 -0.655860 0.357229 -0.482178 1.305816 88.609184
[L_front_hand02_01]
32 86.935165 -11.437475 24.513514 117.907471 -14.823531 -8.063122 91.046425
33 86.935165 -11.437475 24.513514 116.912949 -1.654008 -1.188129 91.046425
[L_front_hand03_01]
32 86.637497 -14.123976 -20.424902 -119.206047 13.559247 -10.135727 90.126129
33 86.637497 -14.123976 -20.424902 -118.323631 0.554562 -2.967925 90.126129
[L_front_hand01_02]
32 71.020905 -0.000179 0.000030 0.000334 -0.002323 -106.379204 71.020905
33 71.020905 -0.000179 0.000030 0.000000 0.000000 -57.378868 71.020905
[L_front_hand02_02]
32 71.020927 -0.000119 0.000060 0.000334 -0.002323 -106.379204 71.020927
33 71.020927 -0.000119 0.000060 0.000000 0.000000 -57.378868 71.020927
[L_front_hand03_02]
32 71.020905 -0.000060 0.000060 0.000334 -0.002323 -106.379204 71.020905
33 71.020905 -0.000060 0.000060 0.000000 0.000000 -57.378868 71.020905
[R_forearm]
32 322.776428 -0.000060 0.000030 0.209360 0.029196 -98.931816 322.776428
33 322.776428 -0.000060 0.000030 0.210331 0.031137 -99.306557 322.776428
[R_front_hand]
32 238.847015 -0.006795 2.210259 16.016735 -10.642924 -26.314842 238.857239
33 238.847015 -0.006795 2.210259 14.913833 -10.644685 -26.316360 238.857239
[R_weapon_bone]
32 155.664093 0.002503 -0.000030 0.003487 0.001180 -90.988930 155.664078
33 155.664093 0.002503 -0.000030 0.003487 0.001180 -90.988930 155.664078
[R_front_hand01_01]
32 87.624611 14.231146 22.918642 -117.163467 -7.643579 4.362239 91.683487
33 87.624611 14.231146 22.918642 -116.903458 0.432149 0.238231 91.683487
[R_front_hand02_01]
32 89.356956 14.367283 -19.491137 118.548973 6.741994 6.564296 92.579636
33 89.356956 14.367283 -19.491137 118.339790 -1.230862 2.245648 92.579636
[R_front_hand03_01]
32 87.286232 -22.307278 -0.143439 -0.328019 -0.309644 -8.268831 90.091743
33 87.286232 -22.307278 -0.143439 -0.376009 -0.257865 0.793856 90.091743
[R_front_hand01_02]
32 71.020905 0.000060 0.000119 0.001777 0.001534 8.377220 71.020905
33 71.020905 0.000060 0.000119 0.001777 0.001534 8.377220 71.020905
[R_front_hand02_02]
32 71.020844 -0.000030 -0.000119 0.001777 0.001534 8.377220 71.020836
33 71.020844 -0.000030 -0.000119 0.001777 0.001534 8.377220 71.020836
[R_front_hand03_02]
32 71.020905 0.000000 0.000030 0.001777 0.001534 8.377220 71.020905
33 71.020905 0.000000 0.000030 0.001777 0.001534 8.377220 71.020905
[null_rope01_connect]
32 328.732483 0.000000 -0.000238 -144.919342 -45.554512 -172.023392 328.732483
33 328.732483 0.000000 -0.000238 -145.748657 -46.420460 -172.986420 328.732483
[Rope1_Seg01]
32 -0.000027 0.000017 0.000067 108.105042 -16.458752 171.456238 0.000074
33 -0.000027 0.000016 0.000064 110.474487 -13.760441 165.774643 0.000071
[Rope1_Seg02]
32 139.999863 -0.000179 0.000000 3.800506 -12.688398 -8.743037 139.999863
33 139.999863 -0.000179 0.000000 2.675558 -11.448705 -8.412305 139.999863
[Rope1_Seg03]
32 139.999924 0.000060 -0.000060 4.675721 -17.746531 -12.129412 139.999924
33 139.999924 0.000060 -0.000060 3.380528 -15.813868 -11.464476 139.999924
[Rope1_Seg04]
32 139.999924 -0.000060 -0.000119 2.830837 -18.863829 -10.546669 139.999924
33 139.999924 -0.000060 -0.000119 2.513803 -17.562265 -11.375629 139.999924
[Rope1_Seg05]
32 139.999832 0.000119 -0.000060 -0.398169 -19.183167 -5.385337 139.999832
33 139.999832 0.000119 -0.000060 0.537693 -17.761847 -8.810846 139.999832
[Rope1_Seg06]
32 139.999954 0.000119 -0.000060 -1.916553 -12.295810 -3.862279 139.999954
33 139.999954 0.000119 -0.000060 -0.893203 -11.343796 -5.866590 139.999954
[Rope1_Seg07]
32 139.999985 0.000060 0.000000 -1.709163 -6.973948 -2.669495 139.999985
33 139.999985 0.000060 0.000000 -0.967575 -6.579521 -3.658904 139.999985
[Rope1_Seg09]
32 121.602913 0.000119 -0.000089 -89.793175 -1.359789 0.847147 121.602913
33 121.602913 0.000119 -0.000089 -89.793175 -1.359789 0.847147 121.602913
[L_mid_hand01]
32 103.859421 1.038730 8.195221 130.544373 -67.584518 -38.866947 104.187431
33 103.859421 1.038730 8.195221 130.544388 -67.584534 -38.866955 104.187431
[L_mid_hand02]
32 105.572853 -4.139662 -10.864139 -168.923172 43.409309 -73.498894 106.211075
33 105.572853 -4.139662 -10.864139 -168.923172 43.409309 -73.498886 106.211075
[L_mid_hand03]
32 104.641464 17.579376 -3.913581 -6.012627 17.808174 74.893669 106.179977
33 104.641464 17.579376 -3.913581 -6.012627 17.808174 74.893669 106.179977
[null_rope02_connect]
32 328.732849 0.000179 -0.000119 -80.816406 70.680054 55.147205 328.732849
33 328.732849 0.000179 -0.000119 -89.504089 69.481750 51.268703 328.732849
[Rope2_Seg01]
32 0.000060 0.000067 0.000000 -27.593969 -42.415977 12.128126 0.000089
33 0.000060 0.000064 0.000000 -26.834208 -40.772400 10.782283 0.000088
[Rope2_Seg02]
32 139.999741 -0.000060 -0.000119 -1.424151 -2.669460 11.437636 139.999756
33 139.999741 -0.000060 -0.000119 -1.524795 -2.739736 10.020022 139.999756
[Rope2_Seg03]
32 140.000107 0.000030 0.000000 0.444356 -8.953303 29.584452 140.000107
33 140.000107 0.000030 0.000000 -0.725955 -9.041513 26.702070 140.000107
[Rope2_Seg04]
32 139.999802 0.000000 -0.000060 17.973282 -15.965714 44.469757 139.999802
33 139.999802 0.000000 -0.000060 15.864363 -19.526567 46.988842 139.999802
[Rope2_Seg05]
32 139.999985 -0.000060 0.000119 11.616283 20.763977 7.803806 139.999985
33 139.999985 -0.000060 0.000119 15.286486 24.643023 11.085075 139.999985
[Rope2_Seg06]
32 139.999893 -0.000030 -0.000119 -4.855121 41.763905 -14.287673 139.999893
33 139.999893 -0.000030 -0.000119 -9.643354 55.165527 -17.184322 139.999893
[Rope2_Seg07]
32 139.999893 0.000060 -0.000060 -3.308612 18.300791 -1.669004 139.999893
33 139.999893 0.000060 -0.000060 -6.628618 18.458088 -0.479291 139.999893
[Rope2_Seg09]
32 121.338966 0.000089 -0.000060 33.793236 -1.359788 -0.847141 121.338966
33 121.338966 0.000089 -0.000060 33.793236 -1.359788 -0.847141 121.338966
[R_mid_hand01]
32 104.680779 11.144459 -10.335981 -16.212063 45.237247 70.462852 105.778534
33 104.680779 11.144459 -10.335981 -16.212063 45.237247 70.462852 105.778534
[R_mid_hand02]
32 104.070427 2.443552 8.231699 49.067368 -67.749771 39.286453 104.424065
33 104.070427 2.443552 8.231699 49.067368 -67.749771 39.286453 104.424065
[R_mid_hand03]
32 106.028137 -11.221827 -5.996406 -177.101105 15.551026 -76.585571 106.788818
33 106.028137 -11.221827 -5.996406 -177.101105 15.551026 -76.585571 106.788818
[spine02]
32 129.756927 0.001550 0.000119 -0.569511 -4.019070 0.199792 129.756927
33 129.756927 0.001550 0.000119 -0.530505 -4.025069 -0.347572 129.756927
[spine03]
32 78.613968 0.081443 -4.898987 1.333907 4.061343 8.311272 78.766502
33 78.613968 0.081432 -4.898987 1.357229 4.053254 8.651188 78.766502
[pelvis]
32 169.435242 0.051022 0.000000 -0.004163 -0.191357 -2.436733 169.435257
33 169.435242 0.051022 0.000000 -0.007775 -0.191370 -1.754141 169.435257
[null_rope03_connect]
32 -1.257226 -2.466202 137.391083 -157.272751 -75.575195 -121.689995 137.418976
33 -1.257226 -2.466202 137.391083 -158.456955 -77.420250 -122.569412 137.418976
[null_rope04_connect]
32 -1.259640 -2.480268 -137.844437 -157.272751 -75.575195 -121.689995 137.872513
33 -1.259640 -2.480268 -137.844437 -158.456955 -77.420250 -122.569412 137.872513
[Rope3_Seg01]
32 0.000000 0.000000 0.000000 -158.434555 -28.256508 -24.544104 0.000000
33 0.000000 0.000000 0.000000 -150.103394 -23.449318 -28.018333 0.000000
[Rope3_Seg02]
32 139.999924 -0.000119 0.000060 8.758653 -5.283426 3.987280 139.999924
33 139.999924 -0.000119 0.000060 9.319501 -5.861791 5.712325 139.999924
[Rope3_Seg03]
32 139.999924 -0.000119 0.000119 13.701093 -8.461590 8.960292 139.999924
33 139.999924 -0.000119 0.000119 12.807338 -8.649698 12.243966 139.999924
[Rope3_Seg04]
32 139.999924 0.000119 0.000000 12.350169 -5.703443 26.855835 139.999924
33 139.999924 0.000119 0.000000 10.035141 -6.116097 31.407057 139.999924
[Rope3_Seg05]
32 139.999924 -0.000238 0.000060 7.489375 -27.588482 30.277853 139.999924
33 139.999924 -0.000238 0.000060 3.325442 -15.999700 17.277088 139.999924
[Rope3_Seg06]
32 139.999893 -0.000119 -0.000060 3.026531 -17.789402 15.645255 139.999893
33 139.999893 -0.000119 -0.000060 4.137568 -18.937735 4.998080 139.999893
[Rope3_Seg07]
32 139.999771 0.000060 -0.000119 1.396208 -4.668981 7.023016 139.999771
33 139.999771 0.000060 -0.000119 2.995350 -8.156929 6.135017 139.999771
[Rope3_Seg08]
32 139.999985 -0.000060 0.000000 0.868015 -2.142183 3.423901 139.999985
33 139.999985 -0.000060 0.000000 1.910650 -4.210724 3.565109 139.999985
[Rope3_Seg09]
32 90.185997 -0.000179 -0.000060 89.793228 -1.359877 -0.847183 90.185997
33 90.185997 -0.000179 -0.000060 89.793228 -1.359877 -0.847183 90.185997
[R_rear_hand01]
32 103.366196 -6.073594 -10.757982 -177.714203 24.565960 -73.910950 104.101845
33 103.366196 -6.073594 -10.757982 -177.714203 24.565960 -73.910950 104.101845
[R_rear_hand02]
32 100.509819 12.039542 -7.992327 -12.874829 36.868488 72.167213 101.543350
33 100.509819 12.039542 -7.992327 -12.874829 36.868488 72.167213 101.543350
[R_rear_hand03]
32 101.539970 5.215704 5.435467 71.484581 -71.816628 21.513813 101.819031
33 101.539970 5.215704 5.435467 71.484581 -71.816628 21.513813 101.819031
[Rope4_Seg01]
32 0.000010 0.000017 -0.000067 75.810432 -52.056007 -128.398407 0.000069
33 0.000010 0.000016 -0.000064 74.703987 -49.430428 -128.792770 0.000066
[Rope4_Seg02]
32 139.999985 0.000060 0.000119 -4.387037 -4.031662 -9.810725 139.999985
33 139.999985 0.000060 0.000119 -8.363494 0.068928 -14.317209 139.999985
[Rope4_Seg03]
32 139.999924 0.000000 -0.000238 -30.950029 -7.836082 -35.666489 139.999924
33 139.999924 0.000000 -0.000238 -29.755026 6.796570 -37.753998 139.999924
[Rope4_Seg04]
32 139.999985 0.000000 0.000119 -55.507000 14.793505 -51.692600 139.999985
33 139.999985 0.000000 0.000119 -24.287804 24.737263 -30.877434 139.999985
[Rope4_Seg05]
32 139.999802 -0.000060 -0.000119 -21.752661 20.346136 -30.430515 139.999802
33 139.999802 -0.000060 -0.000119 -7.951890 12.769691 -19.563833 139.999802
[Rope4_Seg06]
32 139.999924 0.000000 0.000060 -4.472362 12.391135 -9.639465 139.999924
33 139.999924 0.000000 0.000060 -8.028014 13.596268 -25.549864 139.999924
[Rope4_Seg07]
32 139.999802 0.000000 0.000000 -0.822209 5.700630 -3.213961 139.999802
33 139.999802 0.000000 0.000000 -2.177180 9.264822 -10.984871 139.999802
[Rope4_Seg08]
32 139.999924 0.000000 0.000119 -1.755723 2.911031 -1.591723 139.999924
33 139.999924 0.000000 0.000119 -1.969229 4.618603 -5.128852 139.999924
[Rope4_Seg09]
32 90.185791 0.000060 0.000060 -135.617828 2.228885 0.850567 90.185791
33 90.185791 0.000060 0.000060 -135.617828 2.228885 0.850567 90.185791
[L_rear_hand01]
32 101.696655 -8.392275 -7.654577 -12.874829 -36.868488 107.832764 102.329041
33 101.696655 -8.392275 -7.654577 -12.874831 -36.868492 107.832764 102.329041
[L_rear_hand02]
32 102.726799 -1.568258 5.773216 71.484581 71.816612 158.486160 102.900848
33 102.726799 -1.568258 5.773216 71.484596 71.816643 158.486160 102.900848
[L_rear_hand03]
32 104.552910 9.721220 -10.420293 -177.714203 -24.565966 -106.089035 105.519653
33 104.552910 9.721220 -10.420293 -177.714203 -24.565966 -106.089043 105.519653
